<?xml version="1.0" encoding="UTF-8"?>
<svg version="1.1" xmlns="http://www.w3.org/2000/svg" width="1080" height="327">
<path d="M0 0 C356.4 0 712.8 0 1080 0 C1080 107.91 1080 215.82 1080 327 C723.6 327 367.2 327 0 327 C0 219.09 0 111.18 0 0 Z " fill="#FEFEFE" transform="translate(0,0)"/>
<path d="M0 0 C2.17586911 1.25870994 4.19663036 2.67194748 6.25097656 4.12084961 C9.48812462 6.33366742 12.83204549 8.33501997 16.2109375 10.3203125 C16.86270462 10.70451355 17.51447174 11.0887146 18.18598938 11.48455811 C19.54764798 12.28654354 20.90974311 13.0877882 22.27224731 13.88833618 C32.26199276 19.76347159 42.24205958 25.65733585 52.0625 31.8125 C52.78550293 32.26061035 53.50850586 32.7087207 54.25341797 33.17041016 C60.35643659 37.03521527 66.27576478 41.23092371 70.25 47.375 C70.93835938 48.40753906 70.93835938 48.40753906 71.640625 49.4609375 C75.77622039 57.18546911 76.45666271 63.51013486 76.43359375 72.171875 C76.4388356 73.33068176 76.44407745 74.48948853 76.44947815 75.68341064 C76.45588026 78.12747398 76.45458494 80.5715682 76.44604492 83.015625 C76.43755829 86.72452711 76.46628714 90.43187561 76.49804688 94.140625 C76.49965986 96.52604121 76.4990795 98.91146011 76.49609375 101.296875 C76.50732773 102.39102722 76.51856171 103.48517944 76.53013611 104.61248779 C76.44314496 114.39005006 74.28380611 123.82932578 68.375 131.8125 C67.48941406 133.05966797 67.48941406 133.05966797 66.5859375 134.33203125 C59.17521984 141.9778321 49.27445119 146.90436371 40.125 152.1875 C37.54961061 153.68288607 34.97595377 155.18124167 32.40234375 156.6796875 C31.45211082 157.23215904 31.45211082 157.23215904 30.48268127 157.79579163 C24.05715312 161.53679278 17.6875739 165.36939844 11.34228516 169.24487305 C-4.06307236 178.58460552 -4.06307236 178.58460552 -12 177 C-18.4043741 174.35395147 -23.89464575 169.21070851 -27 163 C-27.10663229 161.05666562 -27.14830698 159.10965556 -27.16062927 157.16343689 C-27.1706749 155.91998505 -27.18072052 154.6765332 -27.19107056 153.395401 C-27.19710102 152.00961364 -27.20298598 150.62382564 -27.20874023 149.23803711 C-27.21827706 147.78438083 -27.22816815 146.33072683 -27.23838806 144.8770752 C-27.26980433 140.09385888 -27.29004889 135.31062503 -27.30859375 130.52734375 C-27.31353973 129.30625817 -27.31353973 129.30625817 -27.31858563 128.0605042 C-27.34937703 120.3805134 -27.37608193 112.70051869 -27.39300442 105.02048397 C-27.41489134 95.20262056 -27.45681112 85.38530545 -27.52644199 75.56766123 C-27.57375015 68.66223265 -27.59794736 61.75695161 -27.6052013 54.8513661 C-27.61014898 50.72885678 -27.62514341 46.60696504 -27.6649456 42.48463249 C-27.70194474 38.60121304 -27.71017902 34.71876037 -27.69693947 30.83519745 C-27.69699321 29.41504858 -27.70720351 27.99485546 -27.7286911 26.57486916 C-27.85341218 17.86210867 -27.23897974 11.46529112 -21 5 C-14.82002475 0.04830037 -7.82080444 -1.86894224 0 0 Z " fill="#FF5B4D" transform="translate(80,76)"/>
<path d="M0 0 C1.50395992 -0.00711997 3.00791719 -0.01482157 4.51187134 -0.02307129 C7.65024381 -0.03644577 10.788365 -0.0381168 13.92675781 -0.03222656 C17.91654309 -0.02633608 21.90510916 -0.05692655 25.89465904 -0.09734344 C28.99712434 -0.12339571 32.09930277 -0.1260822 35.20186234 -0.12245178 C36.6712513 -0.12412662 38.14065594 -0.13360839 39.60993576 -0.15159607 C55.1128274 -0.32054605 65.69578725 4.29385115 76.8828125 14.859375 C81.25688648 19.15439945 85.37989444 23.59190185 89.35546875 28.25390625 C92.51484416 31.75951458 95.8899846 35.04829132 99.26513672 38.34521484 C105.63722238 44.61031036 105.63722238 44.61031036 105.8515625 49.71875 C105.77383015 54.47596958 104.08044918 56.79512912 100.859375 60.15625 C97.59572555 62.99714693 94.38379491 62.61970628 90.27323914 62.62265015 C89.53593514 62.6270324 88.79863114 62.63141465 88.0389846 62.6359297 C85.55552822 62.64933983 83.07210735 62.65550149 80.58862305 62.66162109 C78.81321043 62.66952026 77.03779943 62.6777891 75.26239014 62.68640137 C69.42103615 62.71264092 63.57967492 62.72793001 57.73828125 62.7421875 C55.72937325 62.74754621 53.72046529 62.75292372 51.71155739 62.75831985 C43.35702861 62.77995059 35.00250178 62.79868854 26.64795208 62.80994225 C14.66412674 62.82618945 2.68062524 62.85938375 -9.303078 62.91634309 C-17.72350904 62.9550053 -26.14385332 62.97457047 -34.56437081 62.97986281 C-39.59654614 62.98352111 -44.62837624 62.99559325 -49.6604557 63.02796555 C-54.39407217 63.05798109 -59.12713333 63.06438138 -63.86082458 63.05258179 C-65.59869643 63.05236051 -67.33659357 63.06071018 -69.07437706 63.07823563 C-71.44664448 63.1008586 -73.8168865 63.09266642 -76.18916321 63.07675171 C-76.8774964 63.0906338 -77.5658296 63.10451588 -78.27502137 63.11881864 C-82.04265799 63.05650605 -83.54792988 62.55189894 -86.48964214 60.11824989 C-89.27424459 56.70069396 -90.95631544 54.57102503 -91.0859375 50.15625 C-91.12589844 49.41761719 -91.16585937 48.67898438 -91.20703125 47.91796875 C-90.10926833 43.10470056 -86.47439846 40.050421 -82.58764648 37.31323242 C-81.45141846 36.65685791 -80.31519043 36.0004834 -79.14453125 35.32421875 C-78.51689377 34.95674026 -77.88925629 34.58926178 -77.24259949 34.21064758 C-75.19634269 33.01524366 -73.14143305 31.83568443 -71.0859375 30.65625 C-68.19415125 28.97687584 -65.30631147 27.29075645 -62.41796875 25.60546875 C-61.32110748 24.96791153 -61.32110748 24.96791153 -60.2020874 24.31747437 C-55.30925939 21.46619441 -50.46988962 18.53986716 -45.66015625 15.55078125 C-45.03078659 15.16117722 -44.40141693 14.77157318 -43.75297546 14.37016296 C-40.1416285 12.13390514 -40.1416285 12.13390514 -36.54391479 9.87582397 C-34.91066009 8.84453631 -33.26795228 7.82826718 -31.625 6.8125 C-30.70799316 6.23693359 -29.79098633 5.66136719 -28.84619141 5.06835938 C-19.44514269 0.36568178 -10.332757 -0.0060045 0 0 Z " fill="#622CF6" transform="translate(175.6484375,226.53125)"/>
<path d="M0 0 C0.72590777 -0.00297112 1.45181553 -0.00594224 2.1997205 -0.0090034 C4.63862125 -0.01769355 7.07747293 -0.01919891 9.51638794 -0.02069092 C11.26239121 -0.02531882 13.00839346 -0.03034345 14.75439453 -0.03573608 C19.50233468 -0.04886369 24.25026069 -0.05530561 28.99821615 -0.05974674 C31.96336273 -0.06267655 34.92850543 -0.06678115 37.89365005 -0.07125092 C47.16758388 -0.08492605 56.44150886 -0.09459295 65.71545208 -0.09845281 C76.42728359 -0.10293544 87.13898762 -0.12049278 97.85078037 -0.1494534 C106.12686166 -0.1710536 114.40290704 -0.18115618 122.67901623 -0.18249393 C127.62388896 -0.18354304 132.56864186 -0.18947347 137.51348495 -0.20731354 C142.16412001 -0.22376577 146.81454477 -0.22596361 151.46519852 -0.21717453 C153.17241732 -0.21640266 154.8796473 -0.22076661 156.58683777 -0.23063278 C158.91703025 -0.24331008 161.24647316 -0.23749896 163.57666016 -0.22705078 C164.88078794 -0.22851734 166.18491573 -0.2299839 167.52856255 -0.2314949 C172.32750978 0.29553084 174.82692589 2.08146995 178.22781372 5.39044189 C180.44257771 8.99968692 180.49206275 10.95901141 179.91531372 15.14044189 C176.67640463 22.331918 171.1412535 27.21597008 165.54031372 32.64044189 C158.27303242 39.64381922 158.27303242 39.64381922 151.48562622 47.10137939 C145.3374809 54.37076703 136.90477977 59.14395321 127.91531372 62.14044189 C125.77583393 62.24495355 123.63323598 62.28908693 121.49124146 62.30157471 C120.51981453 62.30902206 120.51981453 62.30902206 119.52876282 62.31661987 C117.38546684 62.33122533 115.24224506 62.33804351 113.09890747 62.34356689 C111.60257466 62.34932309 110.10624186 62.35508076 108.60990906 62.36083984 C105.46846169 62.3713476 102.32703986 62.37719061 99.18557739 62.38067627 C95.18339707 62.38613696 91.18156111 62.41011336 87.17948818 62.43864822 C84.0848649 62.45739222 80.99032227 62.46248658 77.89564705 62.46401215 C76.42182613 62.4670167 74.94800588 62.47496987 73.47424126 62.48819733 C62.07781657 62.58311672 53.01380418 61.29684168 43.04031372 55.51544189 C42.39304321 55.14209717 41.74577271 54.76875244 41.07888794 54.38409424 C30.95709746 48.49285126 20.97907087 42.34763336 10.99031067 36.23435974 C7.41189473 34.04667928 3.82038443 31.88284735 0.21609497 29.73809814 C-0.61744507 29.23906982 -1.45098511 28.7400415 -2.30978394 28.22589111 C-3.81747934 27.32417147 -5.32864427 26.42821581 -6.84396362 25.53936768 C-11.63369272 22.65849512 -14.31309332 20.45522079 -16.08468628 15.14044189 C-16.55244494 11.66566328 -16.74993825 9.20568714 -14.85031128 6.16387939 C-10.27485957 0.6597469 -7.18240942 0.01639226 0 0 Z " fill="#612CF7" transform="translate(101.08468627929688,39.85955810546875)"/>
<path d="M0 0 C5.47613731 -0.37442033 10.94467115 -0.64445913 16.43066406 -0.82397461 C18.29005737 -0.89884627 20.14858408 -1.00080861 22.00488281 -1.1315918 C36.93329075 -2.15601161 36.93329075 -2.15601161 41.97824097 1.39077759 C45.58326945 4.89129461 48.29894399 8.91448415 50.89556885 13.19595337 C52.2525339 15.41250459 53.79912565 17.4354445 55.41015625 19.47265625 C56.29647 20.66764286 57.18066204 21.86420668 58.0625 23.0625 C61.80480218 28.0998357 65.60228619 33.0819239 69.5 38 C73.96820057 43.63821256 78.3097469 49.3622277 82.58984375 55.14453125 C86.60424983 60.54593719 90.78553672 65.7319209 95 71 C95.33 50.21 95.66 29.42 96 8 C93.36 8 90.72 8 88 8 C86.66226218 7.87345723 85.32542701 7.7209045 84 7.5 C83.01 7.335 82.02 7.17 81 7 C81 4.69 81 2.38 81 0 C94.53 0 108.06 0 122 0 C122 2.31 122 4.62 122 7 C120.2508503 7.33776684 118.50063855 7.67003671 116.75 8 C115.28820312 8.2784375 115.28820312 8.2784375 113.796875 8.5625 C111 9 111 9 107 9 C107 44.31 107 79.62 107 116 C97 116 97 116 94.328125 113.7890625 C93.64234375 112.74492187 92.9565625 111.70078125 92.25 110.625 C91.42558731 109.42932416 90.59861176 108.23541268 89.76953125 107.04296875 C89.33205566 106.39376465 88.89458008 105.74456055 88.44384766 105.07568359 C85.77389941 101.23735082 82.83337425 97.60637961 79.9375 93.9375 C75.35719993 88.06891436 70.84918178 82.15411557 66.40234375 76.18359375 C62.14331976 70.5395213 57.77689556 64.97858384 53.4296875 59.40234375 C46.53212526 50.55447577 39.70747648 41.65506065 33.0078125 32.65625 C31.05168207 30.06837316 29.02651235 27.53314044 27 25 C26.67 52.39 26.34 79.78 26 108 C31.28 108.33 36.56 108.66 42 109 C42 111.31 42 113.62 42 116 C28.14 116 14.28 116 0 116 C0 113.69 0 111.38 0 109 C4.95 108.67 9.9 108.34 15 108 C15 75 15 42 15 8 C12.36 8 9.72 8 7 8 C5.66226218 7.87345723 4.32542701 7.7209045 3 7.5 C1.515 7.2525 1.515 7.2525 0 7 C0 4.69 0 2.38 0 0 Z " fill="#060606" transform="translate(725,104)"/>
<path d="M0 0 C32.67 0 65.34 0 99 0 C99 9.9 99 19.8 99 30 C96.03 30 93.06 30 90 30 C89.34 23.73 88.68 17.46 88 11 C72.82 10.67 57.64 10.34 42 10 C42 23.86 42 37.72 42 52 C51.9 51.67 61.8 51.34 72 51 C72.66 47.37 73.32 43.74 74 40 C75 39 75 39 78.5 38.875 C82 39 82 39 83 40 C83.08851529 42.59359322 83.11525945 45.16039691 83.09765625 47.75390625 C83.0962413 48.52935287 83.09482635 49.3047995 83.09336853 50.10374451 C83.08775345 52.59003494 83.07519846 55.0762366 83.0625 57.5625 C83.05748694 59.24413933 83.0529237 60.92578006 83.04882812 62.60742188 C83.03777913 66.73831566 83.02050445 70.86914276 83 75 C80.36 75 77.72 75 75 75 C73.72201065 70.28741428 73 66.95734952 73 62 C62.77 62 52.54 62 42 62 C42 76.52 42 91.04 42 106 C58.5 105.67 75 105.34 92 105 C92.99 100.71 93.98 96.42 95 92 C95.65850864 89.33130708 96.32105176 86.66356619 97 84 C99.64 84 102.28 84 105 84 C105.02949232 87.45831484 105.0469616 90.91659654 105.0625 94.375 C105.07087891 95.34050781 105.07925781 96.30601562 105.08789062 97.30078125 C105.09111328 98.26113281 105.09433594 99.22148437 105.09765625 100.2109375 C105.10289307 101.08024902 105.10812988 101.94956055 105.11352539 102.84521484 C104.95527125 107.24297832 104.43787706 111.62122944 104 116 C69.68 116 35.36 116 0 116 C0 113.69 0 111.38 0 109 C7.425 108.01 7.425 108.01 15 107 C15 74.33 15 41.66 15 8 C10.05 7.67 5.1 7.34 0 7 C0 4.69 0 2.38 0 0 Z " fill="#080808" transform="translate(284,104)"/>
<path d="M0 0 C6.85081864 7.42172019 6.80020745 16.74357513 6.640625 26.3203125 C6.63496521 27.61572968 6.62930542 28.91114685 6.62347412 30.24581909 C6.60835107 33.65564019 6.56918942 37.06475733 6.5246582 40.4743042 C6.48341339 43.96714765 6.46540143 47.46010715 6.4453125 50.953125 C6.40267812 57.78153542 6.3345937 64.60948373 6.25 71.4375 C8.89 71.7675 11.53 72.0975 14.25 72.4375 C14.25 74.4175 14.25 76.3975 14.25 78.4375 C0.72 78.4375 -12.81 78.4375 -26.75 78.4375 C-26.75 76.4575 -26.75 74.4775 -26.75 72.4375 C-21 70.4375 -21 70.4375 -18.75 70.4375 C-18.81706359 62.99902554 -18.90689597 55.56107403 -19.01245117 48.12304688 C-19.04567514 45.59348775 -19.07371489 43.06385495 -19.09643555 40.53417969 C-19.13002704 36.89486333 -19.18234754 33.25622066 -19.23828125 29.6171875 C-19.24467117 28.48884491 -19.2510611 27.36050232 -19.25764465 26.19796753 C-19.36267419 20.57008387 -19.49284476 16.25459548 -22.75 11.4375 C-26.68688869 7.74666685 -30.92024 8.14823438 -36.03125 8.234375 C-39.15191058 8.41170427 -39.15191058 8.41170427 -43.75 9.4375 C-43.75 29.8975 -43.75 50.3575 -43.75 71.4375 C-41.44 71.7675 -39.13 72.0975 -36.75 72.4375 C-36.75 74.4175 -36.75 76.3975 -36.75 78.4375 C-49.95 78.4375 -63.15 78.4375 -76.75 78.4375 C-76.75 76.4575 -76.75 74.4775 -76.75 72.4375 C-74.11 72.1075 -71.47 71.7775 -68.75 71.4375 C-68.75 49.3275 -68.75 27.2175 -68.75 4.4375 C-70.73 4.4375 -72.71 4.4375 -74.75 4.4375 C-75.41 4.1075 -76.07 3.7775 -76.75 3.4375 C-76.75 1.4575 -76.75 -0.5225 -76.75 -2.5625 C-66.19 -2.5625 -55.63 -2.5625 -44.75 -2.5625 C-44.75 -0.2525 -44.75 2.0575 -44.75 4.4375 C-43.986875 3.86 -43.22375 3.2825 -42.4375 2.6875 C-29.773384 -5.76527101 -13.25369841 -7.53051046 0 0 Z " fill="#050505" transform="translate(646.75,141.5625)"/>
<path d="M0 0 C6.30444025 4.98328917 8.77676683 10.8492548 10.6875 18.4921875 C10.6875 25.0921875 10.6875 31.6921875 10.6875 38.4921875 C-3.1725 38.4921875 -17.0325 38.4921875 -31.3125 38.4921875 C-31.01316792 56.32697137 -31.01316792 56.32697137 -24.3125 64.4921875 C-19.70168573 67.66051239 -15.5049584 67.90285048 -10.0625 67.7421875 C-9.31685791 67.73123047 -8.57121582 67.72027344 -7.80297852 67.70898438 C-2.26602185 67.59854535 3.19179237 67.19005514 8.6875 66.4921875 C8.6875 68.8021875 8.6875 71.1121875 8.6875 73.4921875 C6.67049841 74.31415356 4.64868631 75.12431967 2.625 75.9296875 C1.49964844 76.38214844 0.37429688 76.83460938 -0.78515625 77.30078125 C-11.70922614 80.990528 -26.29035289 81.39503351 -36.953125 76.7421875 C-46.45476129 71.70820801 -51.75225864 64.66209434 -55.3125 54.4921875 C-56.51690857 48.27348437 -56.57123675 42.1825768 -56.625 35.8671875 C-56.65400391 34.75472656 -56.68300781 33.64226562 -56.71289062 32.49609375 C-56.78284772 23.2509942 -55.37955042 14.99016814 -50.09375 7.23828125 C-49.3409375 6.47644531 -48.588125 5.71460938 -47.8125 4.9296875 C-47.0596875 4.14464844 -46.306875 3.35960937 -45.53125 2.55078125 C-33.53969066 -8.57519018 -13.48356693 -8.79165006 0 0 Z " fill="#050505" transform="translate(912.3125,142.5078125)"/>
<path d="M0 0 C7.22892765 5.89893014 10.01915603 13.54499889 11.8046875 22.47265625 C11.8046875 28.08265625 11.8046875 33.69265625 11.8046875 39.47265625 C-2.0553125 39.47265625 -15.9153125 39.47265625 -30.1953125 39.47265625 C-30.50541732 53.45894446 -30.50541732 53.45894446 -24.1953125 64.47265625 C-18.96483195 68.92854655 -14.86866055 69.00408319 -8.3203125 68.78515625 C-7.46050781 68.77548828 -6.60070312 68.76582031 -5.71484375 68.75585938 C-0.47515347 68.6644232 4.61815724 68.21272959 9.8046875 67.47265625 C9.8046875 69.45265625 9.8046875 71.43265625 9.8046875 73.47265625 C8.31330273 74.30086378 6.81097547 75.10937364 5.3046875 75.91015625 C4.469375 76.36261719 3.6340625 76.81507813 2.7734375 77.28125 C-4.25366293 80.10133636 -12.16254356 79.71215688 -19.6328125 79.78515625 C-20.61830078 79.81416016 -21.60378906 79.84316406 -22.61914062 79.87304688 C-32.12102475 79.95490539 -39.35732376 77.13703202 -46.33984375 70.65625 C-54.41603498 61.15184811 -56.57924852 49.72249009 -56.5078125 37.66015625 C-56.50289795 36.68473877 -56.4979834 35.70932129 -56.49291992 34.7043457 C-56.38229036 27.92076794 -55.90568356 21.77125134 -53.1953125 15.47265625 C-52.86660156 14.69148438 -52.53789062 13.9103125 -52.19921875 13.10546875 C-49.27489173 7.09491425 -44.98900492 1.88022993 -39.1953125 -1.52734375 C-27.75438611 -4.96479271 -10.41788855 -6.6548434 0 0 Z " fill="#050505" transform="translate(549.1953125,141.52734375)"/>
<path d="M0 0 C14.19 0 28.38 0 43 0 C43 1.98 43 3.96 43 6 C38.545 6.495 38.545 6.495 34 7 C35.59652718 9.62992658 37.20171215 12.25382923 38.8125 14.875 C39.26431641 15.62136719 39.71613281 16.36773437 40.18164062 17.13671875 C40.84389648 18.20986328 40.84389648 18.20986328 41.51953125 19.3046875 C42.12438354 20.2944458 42.12438354 20.2944458 42.74145508 21.30419922 C44.06527418 23.28731598 44.06527418 23.28731598 47 25 C47.2371875 24.45859375 47.474375 23.9171875 47.71875 23.359375 C49.34347757 20.36749863 51.3501877 17.88840601 53.5 15.25 C54.2940625 14.26515625 55.088125 13.2803125 55.90625 12.265625 C56.5971875 11.51796875 57.288125 10.7703125 58 10 C58.66 10 59.32 10 60 10 C60 9.01 60 8.02 60 7 C57.69 6.67 55.38 6.34 53 6 C53 4.02 53 2.04 53 0 C62.24 0 71.48 0 81 0 C81 1.98 81 3.96 81 6 C79.741875 6.226875 78.48375 6.45375 77.1875 6.6875 C70.36592373 8.94708021 66.59059706 14.78218519 62.36083984 20.25146484 C60.23353969 22.98482037 58.01856124 25.64236936 55.8125 28.3125 C54.54052292 29.87406906 53.26922313 31.43619175 52 33 C53.71838056 38.09377095 56.61917843 42.38057646 59.5 46.875 C60.02883789 47.70765381 60.55767578 48.54030762 61.10253906 49.39819336 C64.98444403 55.48530377 68.95845575 61.50806447 73.05273438 67.45458984 C76 71.78658316 76 71.78658316 76 74 C78.64 74.33 81.28 74.66 84 75 C84 76.98 84 78.96 84 81 C69.81 81 55.62 81 41 81 C41 79.02 41 77.04 41 75 C43.64 74.67 46.28 74.34 49 74 C45.55766267 66.36699115 40.84345965 59.78912294 36 53 C31.94333043 56.22663055 28.61801897 59.42044257 25.375 63.5 C24.64023437 64.4178125 23.90546875 65.335625 23.1484375 66.28125 C22.43945312 67.1784375 21.73046875 68.075625 21 69 C19.66722528 70.6671134 18.33406936 72.33392242 17 74 C19.64 74.33 22.28 74.66 25 75 C25 76.98 25 78.96 25 81 C15.76 81 6.52 81 -3 81 C-3 79.02 -3 77.04 -3 75 C-2.45472656 74.91105469 -1.90945313 74.82210937 -1.34765625 74.73046875 C6.12947485 72.95385128 9.24384824 68.66195923 13.70214844 62.68554688 C16.1557927 59.49894793 18.80830495 56.47936487 21.4375 53.4375 C21.95803955 52.82994873 22.4785791 52.22239746 23.01489258 51.59643555 C24.95649411 49.3348074 26.89149457 47.10850543 29 45 C28.71576021 40.59308892 26.72886012 37.65135709 24.32421875 34.03515625 C23.95778763 33.47936386 23.59135651 32.92357147 23.21382141 32.35093689 C22.04579005 30.58308092 20.86689612 28.82278912 19.6875 27.0625 C18.9061718 25.88394667 18.12556566 24.70491431 17.34570312 23.52539062 C15.23954733 20.34416755 13.12103817 17.17132384 11 14 C10.29560791 12.90985596 9.59121582 11.81971191 8.86547852 10.6965332 C7.03373791 8.04876786 6.21228654 7.15040688 3.25 6.125 C2.1775 5.75375 1.105 5.3825 0 5 C0 3.35 0 1.7 0 0 Z " fill="#070707" transform="translate(931,139)"/>
<path d="M0 0 C0.69416016 -0.01224609 1.38832031 -0.02449219 2.10351562 -0.03710938 C10.16582145 -0.06007891 14.9888769 3.10764132 20.9375 8.1875 C28.5975986 16.00513276 30.37752391 22.74439108 30.27734375 33.44140625 C29.51678969 41.82498489 26.12695821 49.15633481 19.83203125 54.79296875 C16.73416305 57.07325524 13.48300303 58.72063502 9.9375 60.1875 C9.14988281 60.54457031 8.36226562 60.90164062 7.55078125 61.26953125 C0.22832308 63.84169518 -7.83223637 62.71101075 -14.75390625 59.48828125 C-23.84411185 54.36638876 -28.67865914 46.86876069 -32.0625 37.1875 C-33.59380026 27.90594534 -31.74670101 20.70395072 -26.6015625 13 C-22.45943586 7.2809216 -18.63807982 2.12573182 -11.43359375 0.6484375 C-7.60969408 0.12558679 -3.85132918 0.00359601 0 0 Z " fill="#FF5D4F" transform="translate(201.0625,133.8125)"/>
<path d="M0 0 C13.53 0 27.06 0 41 0 C41 1.98 41 3.96 41 6 C40 7 40 7 38.15234375 7.09765625 C36.1015625 7.06510417 34.05078125 7.03255208 32 7 C38.59107482 22.03455535 45.23224133 37.04408887 52 52 C55.77805636 43.95421741 59.17163803 35.7761128 62.44921875 27.51757812 C63.26026001 25.47414977 64.07513082 23.43227988 64.890625 21.390625 C67.57428283 14.74318023 67.57428283 14.74318023 70 8 C65.545 7.01 65.545 7.01 61 6 C61 4.02 61 2.04 61 0 C69.91 0 78.82 0 88 0 C88 1.98 88 3.96 88 6 C86.02 6.33 84.04 6.66 82 7 C81.64550781 8.1653125 81.29101562 9.330625 80.92578125 10.53125 C78.77219236 16.98071505 75.94016643 23.13279747 73.16067505 29.32940674 C71.48507773 33.0666997 69.82394172 36.8103921 68.1640625 40.5546875 C67.82232498 41.32533539 67.48058746 42.09598328 67.12849426 42.88998413 C63.3512977 51.43066154 59.69764739 60.02309632 56.0625 68.625 C55.75396088 69.35485107 55.44542175 70.08470215 55.12753296 70.83666992 C53.41491103 74.88966648 51.70579108 78.94412278 50 83 C46.37 83 42.74 83 39 83 C29.67574222 62.66911497 20.38598087 42.32437587 11.29101562 21.88964844 C10.45329943 20.01460893 9.60864661 18.14264732 8.75585938 16.27441406 C8.38783203 15.46456055 8.01980469 14.65470703 7.640625 13.8203125 C7.32125977 13.12437988 7.00189453 12.42844727 6.67285156 11.71142578 C6 10 6 10 6 8 C5.195625 7.855625 4.39125 7.71125 3.5625 7.5625 C1 7 1 7 0 6 C0 4.02 0 2.04 0 0 Z " fill="#060606" transform="translate(399,139)"/>
<path d="M0 0 C4.62 0 9.24 0 14 0 C14 5.94 14 11.88 14 18 C19.61 18 25.22 18 31 18 C31 21.3 31 24.6 31 28 C25.39 28 19.78 28 14 28 C14.06294687 35.3630445 14.13838031 42.7257068 14.23571491 50.08838272 C14.28041555 53.50730272 14.31967187 56.92610365 14.34643555 60.34521484 C14.37745412 64.2772773 14.43224353 68.20883626 14.48828125 72.140625 C14.49467117 73.36678528 14.5010611 74.59294556 14.50764465 75.85626221 C14.52743881 76.99714294 14.54723297 78.13802368 14.56762695 79.31347656 C14.58428154 80.81905121 14.58428154 80.81905121 14.60127258 82.3550415 C15.0648015 85.4298608 15.79087567 86.82650446 18 89 C20.71229503 89.29642569 22.99739732 89.38061189 25.6875 89.25 C26.38939453 89.23195313 27.09128906 89.21390625 27.81445312 89.1953125 C29.54355436 89.14826213 31.27195205 89.07651873 33 89 C33 91.64 33 94.28 33 97 C26.52922803 100.81434979 20.22182097 101.43524653 12.875 101.5 C12.0284082 101.51804687 11.18181641 101.53609375 10.30957031 101.5546875 C4.37720105 101.49917995 -0.18967339 100.57225536 -5 97 C-10.60259125 91.17874917 -11.68276372 85.73925367 -11.67977905 77.8323822 C-11.64881134 76.56640701 -11.61784363 75.30043182 -11.5859375 73.99609375 C-11.57744781 72.67706558 -11.56895813 71.35803741 -11.56021118 69.9990387 C-11.53749006 66.52140908 -11.47872024 63.04532461 -11.4119873 59.56829834 C-11.35019716 56.0086354 -11.32311867 52.44871851 -11.29296875 48.88867188 C-11.22895309 41.92508915 -11.12357149 34.96277822 -11 28 C-14.63 28 -18.26 28 -22 28 C-22 26.02 -22 24.04 -22 22 C-20.87464844 22.00580078 -20.87464844 22.00580078 -19.7265625 22.01171875 C-15.8078443 21.60207944 -13.44324587 20.99176049 -10 19 C-5.62107134 13.32974266 -2.84562172 6.52856134 0 0 Z " fill="#080808" transform="translate(688,120)"/>
<path d="M0 0 C3.5625 0.4375 3.5625 0.4375 5.875 2 C10.90756306 9.26925776 9.71136421 18.02667194 9.5625 26.4375 C3.2925 26.4375 -2.9775 26.4375 -9.4375 26.4375 C-9.94050056 7.65881247 -9.94050056 7.65881247 -5.046875 1.76171875 C-3.4375 0.4375 -3.4375 0.4375 0 0 Z " fill="#F0F0F0" transform="translate(890.4375,145.5625)"/>
<path d="M0 0 C3.10164769 2.55024365 4.72566416 4.17699247 6 8 C6.08021999 9.40824893 6.10765977 10.81997231 6.09765625 12.23046875 C6.09515869 12.95387451 6.09266113 13.67728027 6.09008789 14.42260742 C6.08098389 15.33502197 6.07187988 16.24743652 6.0625 17.1875 C6.041875 20.095625 6.02125 23.00375 6 26 C-0.27 26 -6.54 26 -13 26 C-13.30922117 17.13565969 -13.39231693 8.91301073 -8.1875 1.375 C-5.15706609 -0.52984417 -3.51723146 -0.6460221 0 0 Z " fill="#F2F2F2" transform="translate(531,146)"/>
</svg>
